# File created by Blade
# Date/Time:  Tue Jan 27 17:09:01 2015
#---------------------------------------------------------
:version 1.10
:name HOM
:units
  mass 1.0
  length 1.000000
  angle deg
:documentation
     Acclaim Skeleton File
:root
   axis xyz
   order TX TY TZ RX RY RZ
   position 0.000000 0.000000 0.000000
   orientation 0 0 0
:bonedata
   begin
      id 1
      name Spine_dum
      direction 0.000000 1.000000 0.000000
      length 7.539951
      axis 0.0 0.0 0.0 xyz
   end
   begin
      id 2
      name LeftUpLeg_dum
      direction 1.000000 0.000000 0.000000
      length 3.345476
      axis 0.0 0.0 0.0 xyz
   end
   begin
      id 3
      name RightUpLeg_dum
      direction -1.000000 0.000000 0.000000
      length 3.345476
      axis 0.0 0.0 0.0 xyz
   end
   begin
      id 4
      name Spine
      direction 0.000000 1.000000 0.000000
      length 0.000000
      axis 0.0 0.0 0.0 xyz
      dof rx ry rz
   end
   begin
      id 5
      name Spine_dum1
      direction 0.000000 1.000000 0.000000
      length 15.093809
      axis 0.0 0.0 0.0 xyz
   end
   begin
      id 6
      name Spine_dum2
      direction 0.000000 1.000000 0.000000
      length 9.738928
      axis 0.0 0.0 0.0 xyz
   end
   begin
      id 7
      name Spine_dum3
      direction 0.000000 1.000000 0.000000
      length 9.738928
      axis 0.0 0.0 0.0 xyz
   end
   begin
      id 8
      name Head
      direction 0.000000 1.000000 0.000000
      length 4.527550
      axis 0.0 0.0 0.0 xyz
      dof rx ry rz
   end
   begin
      id 9
      name LeftShoulder
      direction 1.000000 0.000000 0.000000
      length 7.084015
      axis 0.0 0.0 -90.0 xyz
      dof rx ry rz
   end
   begin
      id 10
      name LeftArm
      direction 1.000000 0.000000 0.000000
      length 10.259319
      axis 0.0 0.0 -90.0 xyz
      dof rx ry rz
   end
   begin
      id 11
      name LeftForeArm
      direction 1.000000 0.000000 0.000000
      length 9.896984
      axis 0.0 0.0 -90.0 xyz
      dof ry rz rx
   end
   begin
      id 12
      name LeftHand
      direction 0.000000 0.000000 0.000000
      length 0.000000
      axis 0.0 0.0 -90.0 xyz
      dof rx ry rz
   end
   begin
      id 13
      name LeftHand_dum1
      direction 0.000000 0.000000 0.000000
      length 0.000000
      axis 0.0 0.0 -90.0 xyz
   end
   begin
      id 14
      name LeftHand_dum2
      direction 1.000000 0.000000 0.000000
      length 3.937000
      axis 0.0 0.0 -90.0 xyz
   end
   begin
      id 15
      name LeftHandThumb1
      direction 0.000000 0.000000 1.000000
      length 3.937000
      axis 0.0 0.0 -90.0 xyz
      dof rx rz ry
   end
   begin
      id 16
      name RightShoulder
      direction -1.000000 0.000000 0.000000
      length 7.084015
      axis 0.0 0.0 90.0 xyz
      dof rx ry rz
   end
   begin
      id 17
      name RightArm
      direction -1.000000 0.000000 0.000000
      length 10.259319
      axis 0.0 0.0 90.0 xyz
      dof rx ry rz
   end
   begin
      id 18
      name RightForeArm
      direction -1.000000 0.000000 0.000000
      length 9.896984
      axis 0.0 0.0 90.0 xyz
      dof ry rz rx
   end
   begin
      id 19
      name RightHand
      direction 0.000000 0.000000 0.000000
      length 0.000000
      axis 0.0 0.0 90.0 xyz
      dof rx ry rz
   end
   begin
      id 20
      name RightHand_dum1
      direction 0.000000 0.000000 0.000000
      length 0.000000
      axis 0.0 0.0 90.0 xyz
   end
   begin
      id 21
      name RightHand_dum2
      direction -1.000000 0.000000 0.000000
      length 3.937000
      axis 0.0 0.0 90.0 xyz
   end
   begin
      id 22
      name RightHandThumb1
      direction 0.000000 0.000000 1.000000
      length 3.937000
      axis 0.0 0.0 90.0 xyz
      dof rx rz ry
   end
   begin
      id 23
      name LeftUpLeg
      direction 0.000000 -1.000000 0.000000
      length 19.114733
      axis 0.0 0.0 0.0 xyz
      dof rx ry rz
   end
   begin
      id 24
      name LeftLeg
      direction 0.000000 -1.000000 0.000000
      length 16.045604
      axis 0.0 0.0 0.0 xyz
      dof rx ry rz
   end
   begin
      id 25
      name LeftFoot
      direction 0.000000 -0.258819 0.965926
      length 5.543155
      axis 15.0 0.0 0.0 xyz
      dof rx ry rz
   end
   begin
      id 26
      name LeftToeBase
      direction 0.000000 0.000000 1.000000
      length 2.952750
      axis 0.0 0.0 0.0 xyz
      dof rx ry rz
   end
   begin
      id 27
      name RightUpLeg
      direction 0.000000 -1.000000 0.000000
      length 19.114733
      axis 0.0 0.0 0.0 xyz
      dof rx ry rz
   end
   begin
      id 28
      name RightLeg
      direction 0.000000 -1.000000 0.000000
      length 16.045604
      axis 0.0 0.0 0.0 xyz
      dof rx ry rz
   end
   begin
      id 29
      name RightFoot
      direction 0.000000 -0.258819 0.965926
      length 5.543155
      axis 15.0 0.0 0.0 xyz
      dof rx ry rz
   end
   begin
      id 30
      name RightToeBase
      direction 0.000000 0.000000 1.000000
      length 2.952750
      axis 0.0 0.0 0.0 xyz
      dof rx ry rz
   end
:hierarchy
   begin
      root Spine_dum LeftUpLeg_dum RightUpLeg_dum
      Spine_dum Spine
      LeftUpLeg_dum LeftUpLeg
      RightUpLeg_dum RightUpLeg
      Spine Spine_dum1 Spine_dum2 Spine_dum3
      Spine_dum1 Head
      Spine_dum2 LeftShoulder
      Spine_dum3 RightShoulder
      LeftShoulder LeftArm
      LeftArm LeftForeArm
      LeftForeArm LeftHand
      LeftHand LeftHand_dum1 LeftHand_dum2
      LeftHand_dum1 LeftHandThumb1
      RightShoulder RightArm
      RightArm RightForeArm
      RightForeArm RightHand
      RightHand RightHand_dum1 RightHand_dum2
      RightHand_dum1 RightHandThumb1
      LeftUpLeg LeftLeg
      LeftLeg LeftFoot
      LeftFoot LeftToeBase
      RightUpLeg RightLeg
      RightLeg RightFoot
      RightFoot RightToeBase
   end

# File created by Blade
# Date/Time:  Tue Jan 27 17:08:52 2015
# Frame Rate: 120.000 fps
#------------------------------------------------------
:FULLY-SPECIFIED
:DEGREES
2564
root 0.577057 36.784308 -0.488936 16.003756 -45.926639 -23.701549
Spine 11.817458 20.114171 9.786651
Head -0.068645 -13.831204 2.769932
LeftShoulder -7.935086 -5.448776 5.449570
LeftArm -26.538919 -40.961423 -32.957949
LeftForeArm 11.339304 -0.000000 120.586897
LeftHand -25.068148 -0.000000 33.994221
LeftHandThumb1 -26.253704 0.000000 33.147579
RightShoulder 3.376550 -20.853398 -7.924295
RightArm 29.187906 -23.048967 56.419399
RightForeArm 180.536022 -0.000000 66.923373
RightHand 0.250743 0.000000 13.538767
RightHandThumb1 -24.326973 -0.000000 -32.862282
LeftUpLeg -13.809355 19.239010 9.022681
LeftLeg 30.098853 -0.000000 -0.000000
LeftFoot -27.063156 18.211040 -11.582840
LeftToeBase 12.154413 -0.000000 -0.000000
RightUpLeg -88.427910 -33.735691 18.172337
RightLeg 104.048859 -0.000000 -0.000000
RightFoot -3.896068 -11.034735 9.340841
RightToeBase 5.527218 -0.000000 -0.000000
2565
root 0.577822 36.797497 -0.475655 16.208701 -46.159547 -23.669228
Spine 11.404506 20.277901 9.630817
Head -0.028663 -13.727266 2.497573
LeftShoulder -8.045157 -5.419870 5.318831
LeftArm -26.676714 -40.975847 -32.831840
LeftForeArm 11.497682 -0.000000 120.582670
LeftHand -25.076582 0.000000 33.839878
LeftHandThumb1 -26.253704 0.000000 33.147579
RightShoulder 3.428996 -20.889897 -8.090875
RightArm 29.424553 -23.494543 56.162816
RightForeArm 180.765975 -0.000000 66.826763
RightHand 0.066434 -0.000000 13.531926
RightHandThumb1 -24.326973 -0.000000 -32.862282
LeftUpLeg -13.869403 19.478612 8.883751
LeftLeg 29.893653 -0.000000 -0.000000
LeftFoot -26.994445 18.135300 -11.653610
LeftToeBase 12.121723 -0.000000 -0.000000
RightUpLeg -87.854738 -33.611200 18.091366
RightLeg 105.901144 -0.000000 -0.000000
RightFoot -2.570687 -10.514513 8.723334
RightToeBase 5.609196 -0.000000 -0.000000
2566
root 0.580466 36.807787 -0.458623 16.372730 -46.399665 -23.587652
Spine 11.003294 20.438949 9.449824
Head -0.030286 -13.671157 2.206142
LeftShoulder -8.124009 -5.386781 5.172587
LeftArm -26.844392 -41.007314 -32.665417
LeftForeArm 11.597660 -0.000000 120.588508
LeftHand -25.051058 -0.000000 33.900334
LeftHandThumb1 -26.253704 0.000000 33.147579
RightShoulder 3.512496 -20.904796 -8.301907
RightArm 29.584313 -23.833847 56.034796
RightForeArm 180.394312 -0.000000 66.812328
RightHand 0.383928 0.000000 12.969002
RightHandThumb1 -24.326973 -0.000000 -32.862282
LeftUpLeg -13.916150 19.644270 8.700890
LeftLeg 29.664657 -0.000000 -0.000000
LeftFoot -26.945236 18.131346 -11.732984
LeftToeBase 12.156761 -0.000000 -0.000000
RightUpLeg -87.284053 -33.501237 18.009526
RightLeg 107.876667 -0.000000 -0.000000
RightFoot -1.076335 -9.821157 7.977236
RightToeBase 5.597086 -0.000000 -0.000000
2567
root 0.579589 36.816632 -0.444898 16.563413 -46.653543 -23.541102
Spine 10.619370 20.629729 9.286046
Head -0.075258 -13.596293 1.936885
LeftShoulder -8.214405 -5.352576 5.047311
LeftArm -26.969222 -41.115541 -32.560429
LeftForeArm 11.671869 -0.000000 120.600325
LeftHand -25.002461 -0.000000 33.693113
LeftHandThumb1 -26.253704 0.000000 33.147579
RightShoulder 3.585445 -20.911614 -8.505583
RightArm 29.773029 -24.234915 55.848416
RightForeArm 180.437287 0.000000 66.777553
RightHand 0.349500 -0.000000 12.775100
RightHandThumb1 -24.326973 -0.000000 -32.862282
LeftUpLeg -14.014357 19.860675 8.535326
LeftLeg 29.544047 -0.000000 -0.000000
LeftFoot -26.872129 18.167171 -11.746488
LeftToeBase 12.152712 -0.000000 -0.000000
RightUpLeg -86.706419 -33.365779 17.947678
RightLeg 109.945760 -0.000000 -0.000000
RightFoot 0.621996 -8.869433 7.163219
RightToeBase 5.869172 -0.000000 -0.000000
2568
root 0.580799 36.822533 -0.431994 16.742598 -46.899205 -23.443154
Spine 10.196347 20.779245 9.060749
Head -0.134979 -13.534194 1.654849
LeftShoulder -8.330332 -5.330975 4.939555
LeftArm -27.133541 -41.169090 -32.410705
LeftForeArm 11.789789 -0.000000 120.628668
LeftHand -25.045231 -0.000000 33.472340
LeftHandThumb1 -26.253704 0.000000 33.147579
RightShoulder 3.672400 -20.968043 -8.681731
RightArm 30.040569 -24.664986 55.574715
RightForeArm 180.814151 -0.000000 66.701214
RightHand 0.230857 -0.000000 12.541720
RightHandThumb1 -24.326973 -0.000000 -32.862282
LeftUpLeg -14.133713 19.984430 8.327932
LeftLeg 29.392149 -0.000000 -0.000000
LeftFoot -26.836596 18.238349 -11.828112
LeftToeBase 12.170057 -0.000000 -0.000000
RightUpLeg -86.167903 -33.230779 17.874968
RightLeg 112.095951 -0.000000 -0.000000
RightFoot 2.519683 -7.751942 6.232482
RightToeBase 5.859855 -0.000000 -0.000000
2569
root 0.582518 36.824350 -0.418549 16.915611 -47.179095 -23.306708
Spine 9.741128 20.987845 8.780255
Head -0.180657 -13.459783 1.421225
LeftShoulder -8.429602 -5.230922 4.837171
LeftArm -27.183113 -41.254747 -32.320421
LeftForeArm 11.945910 -0.000000 120.634264
LeftHand -25.025255 0.000000 33.477490
LeftHandThumb1 -26.253704 0.000000 33.147579
RightShoulder 3.729957 -21.007591 -8.842512
RightArm 30.292317 -25.102603 55.340202
RightForeArm 181.147573 -0.000000 66.618204
RightHand 0.040820 -0.000000 12.497492
RightHandThumb1 -24.326973 -0.000000 -32.862282
LeftUpLeg -14.281106 20.095465 8.075625
LeftLeg 29.264636 -0.000000 -0.000000
LeftFoot -26.827955 18.348658 -11.899059
LeftToeBase 12.246487 -0.000000 -0.000000
RightUpLeg -85.656631 -33.062025 17.784456
RightLeg 114.328366 -0.000000 -0.000000
RightFoot 4.456853 -6.551631 5.488978
RightToeBase 6.190930 -0.000000 -0.000000
